<?xml version="1.0" encoding="utf-8"?>
<!-- Generator: Adobe Illustrator 15.0.0, SVG Export Plug-In . SVG Version: 6.00 Build 0)  -->
<!DOCTYPE svg PUBLIC "-//W3C//DTD SVG 1.1//EN" "http://www.w3.org/Graphics/SVG/1.1/DTD/svg11.dtd">
<svg version="1.1" id="レイヤー_2" xmlns="http://www.w3.org/2000/svg" xmlns:xlink="http://www.w3.org/1999/xlink" x="0px"
	 y="0px" width="1190.55px" height="841.89px" viewBox="0 0 1190.55 841.89" enable-background="new 0 0 1190.55 841.89"
	 xml:space="preserve">
<polygon fill="#13AE67" stroke="#006934" stroke-width="2" stroke-linecap="round" stroke-linejoin="round" stroke-miterlimit="10" points="
	1049.625,630 1046,620.667 1049.75,597.75 1046.067,593.234 1047.875,572.625 1056,553.125 1047.125,522.5 1025.333,485.459 
	1013.75,477 1002,452 1000.625,445.25 994.125,442.5 995.5,430.375 983.882,417.286 987.5,411.875 984.125,391.875 987.625,382.125 
	986.314,376.222 974.75,365.625 958,343.875 953.333,323.333 950,324.625 950,328 950,330.667 946,332.667 928.25,326.125 
	917.25,326.25 913.625,322.875 912.25,299 900,284.667 898.625,276.75 889.291,261.356 882.5,238.25 885.75,221.875 881.125,215.75 
	879.333,208.667 874.375,212.25 871,210.625 869.875,203.875 860.833,205.375 858,204 861.333,200.667 858,197.333 850.2,200.934 
	850.125,215.25 831.333,216.667 828.5,226.5 809.333,207.333 799,201.875 751.875,221.875 722.667,220 698.125,223.25 680,216 
	668.291,203.125 662.667,202 657.333,194 652,189.333 637.333,184.667 624.667,166.667 619.333,166.667 610.667,160 607.5,161.375 
	604.5,158.375 601.125,158.375 596,169.25 586.375,172.625 586.375,180.5 580,182.625 570,177.75 566.625,167.75 561.375,169.125 
	536,161.125 536,169.375 525.75,165.75 517.75,167.625 510.875,164.5 501.375,154.625 491.625,156.125 491.625,153.125 
	486.625,149.625 479.875,149.625 465.625,142.25 458.875,138.375 457.375,136.75 452.75,133.375 429.375,133.375 424.25,128.625 
	414.25,143.75 406.25,151.5 409.375,153.25 396.625,174.375 383.125,198.875 370.375,215.125 370.375,227.125 363.75,229.875 
	365.625,247.875 370.625,254.25 368.75,257.5 368.875,260.75 357,261 352.25,265.625 350.5,285.25 344.125,287 338.875,283.25 
	337.625,279 335.5,280.875 332.625,280.75 332.625,276.125 327.625,275.5 326,278.5 321.25,277.25 318.125,280.25 320.75,285.125 
	316.25,286.75 311.5,285.25 309.875,291.75 308.75,295.25 306,298 298.5,296.75 293.75,289 288.875,287.125 284.875,288.375 
	281.75,303.375 281.75,308.625 271,319.625 260.625,326.125 249.5,319.75 244.5,322.875 234.25,323.125 224.875,329.25 
	209.875,334.5 201.875,344.375 192,347.875 188.375,357.25 180.25,365.875 179.125,369.875 177.25,371.75 177.25,376.75 
	150.875,381.75 146,384.875 138.125,377.125 131.5,375.125 116.375,378.5 111.875,396.375 106.75,403.375 102.375,407.375 
	100.75,412.625 94,419.25 85.75,420.945 81.875,428.625 80.75,442.875 82.625,449 85,449.5 89,455.625 93.75,456.625 
	97.125,470.375 103.75,475 101.875,488 97.5,495.75 94,497.625 95,499 93.875,505.625 98.375,510.875 102.125,508.875 
	112.125,513.875 114.625,512.25 123.375,515.375 134.75,515.625 144.5,522.375 146,540 159.25,544.875 164.25,553.25 
	171.25,550.625 172.875,549.75 174.75,550.125 179.375,553.375 183.375,552.5 187,550.75 191.875,548.25 198.75,551.625 
	201.875,558.125 203.375,556.25 210,558 216.625,567.875 223.375,569.625 229.625,576.25 233,569.625 244.375,563 256,568 
	261.125,564.25 270.625,561.5 270.375,555.625 272.25,552 272.25,548 300.125,530.375 304.75,535.25 318,531.875 326.5,518.875 
	332.75,517 347,526.5 357.25,537.125 373.5,544.75 378.5,543.625 378.625,541.75 385.5,541.625 390.25,545.875 396.75,548.625 
	400.25,550 437.75,553.25 447.375,559.625 450.625,566.375 453.5,566.75 471.625,574.375 483.5,576.125 486.75,571 491.75,569.5 
	506.375,581 512.625,576 516,580.75 524.5,579.125 530.5,580.875 531.5,581 544.5,577.5 547,575.875 550.625,580.75 555,579.375 
	558.25,582.125 565,582.25 567.125,594 575.125,592.375 576.625,598.625 574.875,601.875 583.25,620.375 589.75,624.75 
	601.375,621.75 604.5,623.125 620.625,625.375 619.125,631.125 623.5,637.625 624.125,637.625 620.75,639.75 627.625,638 
	630.125,642.625 629.25,645.875 627.375,647.75 631.75,652.875 638.875,651.125 638.875,654.125 643.625,652.625 648.75,647.875 
	661.625,651 663.375,649.5 674.875,651.125 676.25,647.875 679.625,650.875 692.75,648.125 696.125,644.625 705.875,641.75 
	714.125,636.375 718.875,638.375 723.75,636.625 725.5,638.125 727,634.875 738.625,631.5 738.5,628.375 746.625,628.625 
	761.5,610.375 766.25,615 764.625,619.875 758.5,624.875 763,629.875 763,637.875 755.25,643.125 747,646.125 742.25,652.625 
	766.125,643.375 764.5,662.5 766.25,664.375 773.125,662.5 773.125,659.5 779.5,656.125 786.375,654.375 784.75,651.25 
	796.125,646.5 800.875,638.125 805.875,637.875 807.5,639.625 814,643.25 809.25,644.5 809.375,647.875 822,646.5 823.625,651 
	828.625,649.25 830.5,636.125 841.75,626.875 843.25,618.625 850,618.375 858.125,616.75 874.375,618.5 884.25,615.125 
	888.75,618.375 890.75,618.125 897.25,625.375 908.625,625.125 912.125,630.25 920.125,626.5 923.25,628.125 923.375,636.5 930,633 
	930.375,629.875 936.5,629.625 941.5,622.25 941.375,618.375 933.375,607.625 938.875,604.125 941.625,603.875 948.625,598.5 
	951.375,598.75 957.625,608.75 973.125,610.25 975.625,607.25 986,607.25 990.5,605.375 990.625,600.625 994.125,605.375 
	990.75,614.375 990.625,618.5 995.375,623.125 1005.5,615 1013.125,620.875 1020,624.75 1021.875,621.875 1034.625,618.5 
	1036.5,622.875 1033,628 1036.375,634.625 1046.25,631.5 1051.125,633.125 "/>
</svg>
